<?xml version="1.0" encoding="utf-8"?>
<!-- Generator: Adobe Illustrator 21.1.0, SVG Export Plug-In . SVG Version: 6.00 Build 0)  -->
<svg version="1.1" id="Laag_1" xmlns="http://www.w3.org/2000/svg" xmlns:xlink="http://www.w3.org/1999/xlink" x="0px" y="0px"
	 viewBox="0 0 87.9 226.8" style="enable-background:new 0 0 87.9 226.8;" xml:space="preserve">
<style type="text/css">
	.st0{opacity:0.1;fill:#5ABEAF;enable-background:new    ;}
	.st1{fill:#5ABEAF;}
</style>
<path id="Path_34" class="st0" d="M2376,1521.8C2103.4,1366.3,851.6,1220,196.3,1230.7c-158.5,2.6-316.5,20.4-471.5,53.8
	c-1062.7,229-2039.1,119.3-2039.1,119.3V850.4c0,0,956.3,188.8,1881.6-73.7C624.2,476.8,2435.8,881.9,2435.8,881.9
	S2707.6,1711.1,2376,1521.8z"/>
<g id="_x39_vKqSA.tif">
	
		<image style="overflow:visible;" width="1381" height="467" id="Layer_0" xlink:href="65ABB1B9493AC88C.png"  transform="matrix(1 0 0 1 -352.5708 2400.4773)">
	</image>
</g>
<path id="Path_33" class="st0" d="M-2093.5,1292c1580-352.7,3075.7,130.5,3679.3,149.2c400.2,12.4,856.5-186.1,856.5-186.1V701.8
	c0,0-1360.5,304.8-2698-27.5C-999.2,489.6-2338.1,583-2338.1,583S-2466.2,1375.2-2093.5,1292z"/>
<polygon class="st1" points="49.2,166.3 46.4,163.5 41.7,168.1 37,163.5 34.2,166.3 40.3,172.4 41.7,173.9 43.1,172.4 "/>
<g>
	<rect x="40.3" y="43.9" class="st1" width="2.8" height="111"/>
</g>
</svg>
