<?xml version="1.0" encoding="utf-8"?>
<!-- Generator: Adobe Illustrator 23.0.3, SVG Export Plug-In . SVG Version: 6.00 Build 0)  -->
<svg version="1.1" id="Laag_1" xmlns="http://www.w3.org/2000/svg" xmlns:xlink="http://www.w3.org/1999/xlink" x="0px" y="0px"
	 viewBox="0 0 771.28 212.68" style="enable-background:new 0 0 771.28 212.68;" xml:space="preserve">
<style type="text/css">
	.st0{fill:#D77F60;stroke:#D77F60;stroke-linecap:round;stroke-linejoin:round;stroke-miterlimit:10;}
	.st1{fill:#5EADA0;stroke:#FFFFFF;stroke-width:0.25;stroke-miterlimit:10;}
</style>
<g>
	<g>
		<g>
			<path class="st0" d="M183.87,181.37c-3.54,4.09-8.66,6.44-14.05,6.45l-80.05,0.04c-14.66,0.01-28.95-2.87-42.47-8.57
				c-12.99-5.47-23.41-15.64-29.33-28.64l-2.17-4.77c-7.29-16.01-6.77-34.63,1.39-49.82c1.91-3.56,3.98-6.47,6.16-8.64
				c6.4-6.4,14.33-11.13,22.93-13.68c0.82-0.25,3.53-1.03,6.43-1.76c4.27-1.07,8.67-0.58,12.38,1.37c1.49,0.79,2.86,1.89,4.32,3.49
				c10.15,11.09,20.12,42.58,19.93,49.52c-0.13,5.14,1.82,14.62,5.08,17.19l0.14,0.12l1.04,0.89c1.49,1.15,3.09,1.34,5.15,0.62
				c11.9-4.14,19.46-0.87,21.29,0.09c12.25,4.74,20.87,6.09,24.94,3.92l0.27-0.16c0.03-0.02,0.07-0.04,0.11-0.07l0.49-0.57l0.35-0.1
				c0.7-0.62,1.49-1.46,2.39-2.42c1.14-1.21,5.63-5.15,2.17-6.44c-2.29-0.86-4.97,3.12-6.47,4.31l-1.67-0.2
				c-1.85-0.22-9.48-2.43-29.71-21.49c-3.02-2.85-5.85-5.97-8.39-9.28c-11.21-12.48-16.32-26.28-20.06-36.36
				c-0.47-1.26-0.91-2.47-1.35-3.61c-0.12-0.33-0.25-0.63-0.37-0.94c-0.41-1.02-0.88-2.17-1.15-3.55c-0.03-0.17-0.1-0.4-0.16-0.65
				c-0.17-0.63-0.35-1.35-0.45-2.04c-0.02-0.15-0.05-0.28-0.07-0.42c-0.07-0.36-0.15-0.8-0.2-1.38l-0.01-0.43
				c0.27-13.12,2.41-22.23,12.92-32.74c10.41-10.42,24.26-16.07,39-15.91c29.59,0.32,53.68,24.95,53.7,54.91l0.05,99.58
				C188.39,173.68,186.79,177.99,183.87,181.37z M28.15,94.12c-1.31,1.51-2.59,3.44-3.84,5.76c-6.97,12.98-7.4,28.92-1.15,42.64
				l2.17,4.77c5.08,11.15,13.99,19.86,25.11,24.54c12.52,5.27,25.75,7.94,39.33,7.93l80.05-0.04c3.05,0,5.94-1.33,7.94-3.65
				c1.65-1.91,2.55-4.34,2.55-6.86l-0.05-99.58c-0.01-25.56-20.52-46.56-45.7-46.83c-12.55-0.13-24.34,4.68-33.2,13.54
				C92.69,45.03,91.06,51.71,90.8,63.3c0.02,0.16,0.05,0.31,0.08,0.45c0.04,0.25,0.09,0.49,0.13,0.76c0.03,0.22,0.18,0.78,0.26,1.11
				c0.12,0.44,0.22,0.85,0.28,1.15c0.12,0.61,0.37,1.24,0.7,2.04c0.14,0.35,0.29,0.72,0.44,1.1c0.45,1.17,0.9,2.4,1.38,3.69
				c3.72,10.03,8.34,22.52,18.59,33.88l0.21,0.25c2.3,3.01,4.86,5.85,7.61,8.44c13.94,13.14,21.08,17.43,23.91,18.79
				c1.43,0.69,5.83-5.08,7.3-5.57c2.73-0.92,7.76,4.73,9.14,6.71c3.04,4.36,2.31,8.7-1.48,12.4c-1.08,1.06-2.02,2.05-2.84,2.93
				c-1.18,1.25-2.19,2.33-3.34,3.3c-0.07,0.06-0.14,0.12-0.24,0.2c0,0-0.3,0.23-0.31,0.24l-0.7,0.51c-0.1,0.06-0.19,0.13-0.29,0.19
				l-0.07,0.04c-0.16,0.1-0.32,0.2-0.49,0.29l-0.19,0.11c-6.5,3.52-16.67,2.38-31.98-3.57l-0.38-0.15l-0.22-0.15
				c-0.16-0.09-5.43-2.88-14.86,0.4c-4.72,1.64-9.17,0.96-12.88-1.96l-0.14-0.12l-1.05-0.91c-6.44-5.17-8.22-18.17-8.08-23.69
				c0.13-4.87-8.98-34.2-17.82-43.85c-0.81-0.89-1.49-1.46-2.13-1.8c-1.94-1.03-4.3-1.27-6.64-0.68c-2.74,0.69-5.27,1.41-6.06,1.65
				c-7.36,2.18-14.1,6.2-19.55,11.66C28.76,93.44,28.45,93.77,28.15,94.12z"/>
		</g>
	</g>
	<g>
		<path class="st1" d="M236.51,106.73c-0.63,0.17-1.62,0.35-2.97,0.52c-1.35,0.17-2.69,0.26-4.01,0.26c-1.32,0-2.49-0.1-3.49-0.3
			c-1.01-0.2-1.85-0.56-2.54-1.08c-0.69-0.52-1.21-1.23-1.55-2.15c-0.34-0.92-0.52-2.12-0.52-3.62V59.76c0-1.21,0.33-2.14,0.99-2.8
			c0.66-0.66,1.56-1.19,2.71-1.6c1.95-0.69,4.18-1.19,6.68-1.51c2.5-0.31,5.01-0.47,7.54-0.47c7.93,0,13.99,1.7,18.18,5.09
			c4.19,3.39,6.29,7.99,6.29,13.79c0,2.82-0.45,5.36-1.34,7.63c-0.89,2.27-2.21,4.22-3.96,5.86c-1.75,1.64-3.96,2.9-6.64,3.79
			c-2.67,0.89-5.76,1.34-9.26,1.34h-6.12V106.73z M241,79.07c2.41,0,4.27-0.56,5.56-1.68c1.29-1.12,1.94-2.83,1.94-5.13
			c0-2.18-0.68-3.86-2.02-5.04c-1.35-1.18-3.32-1.77-5.9-1.77c-0.92,0-1.68,0.02-2.28,0.04c-0.6,0.03-1.22,0.1-1.85,0.22v13.36H241z
			"/>
		<path class="st1" d="M271.5,62.86c0-2.47,0.72-4.42,2.15-5.86c1.43-1.44,3.39-2.16,5.86-2.16h28.44c0.4,0.63,0.76,1.47,1.08,2.5
			c0.32,1.04,0.47,2.13,0.47,3.28c0,2.18-0.47,3.74-1.42,4.65s-2.2,1.38-3.75,1.38h-18.18v8.02h19.39c0.4,0.63,0.76,1.45,1.08,2.46
			c0.32,1,0.47,2.08,0.47,3.23c0,2.18-0.46,3.74-1.38,4.65c-0.92,0.92-2.15,1.38-3.71,1.38h-15.86v9.05h22.15
			c0.4,0.63,0.76,1.47,1.08,2.5c0.31,1.03,0.47,2.13,0.47,3.28c0,2.18-0.47,3.75-1.42,4.7c-0.95,0.95-2.2,1.42-3.75,1.42h-25.16
			c-2.47,0-4.43-0.72-5.86-2.16c-1.44-1.44-2.15-3.39-2.15-5.86V62.86z"/>
		<path class="st1" d="M338.55,108.45c-0.98,0-2.1-0.03-3.36-0.09c-1.26-0.06-2.57-0.17-3.92-0.35c-1.35-0.17-2.7-0.39-4.05-0.65
			c-1.35-0.26-2.6-0.62-3.75-1.08c-3.16-1.21-4.74-3.3-4.74-6.29V59.76c0-1.21,0.33-2.14,0.99-2.8c0.66-0.66,1.56-1.19,2.71-1.6
			c2.47-0.8,5.08-1.33,7.84-1.59c2.76-0.26,5.23-0.39,7.41-0.39c4.48,0,8.55,0.55,12.19,1.64c3.65,1.09,6.78,2.77,9.39,5.04
			c2.61,2.27,4.64,5.13,6.08,8.58c1.44,3.45,2.15,7.53,2.15,12.24c0,4.6-0.69,8.6-2.07,12.02c-1.38,3.42-3.35,6.29-5.9,8.62
			c-2.56,2.33-5.62,4.07-9.18,5.21C346.79,107.88,342.86,108.45,338.55,108.45z M333.72,95.87c0.63,0.12,1.41,0.22,2.33,0.3
			c0.92,0.09,1.78,0.13,2.58,0.13c1.95,0,3.75-0.29,5.39-0.86c1.64-0.57,3.04-1.47,4.22-2.67c1.18-1.21,2.1-2.77,2.76-4.7
			c0.66-1.92,0.99-4.24,0.99-6.94c0-5.17-1.21-9.06-3.62-11.68c-2.41-2.61-5.63-3.92-9.65-3.92c-0.81,0-1.62,0.03-2.46,0.09
			c-0.83,0.06-1.68,0.14-2.54,0.26V95.87z"/>
		<path class="st1" d="M391.2,106.73c-0.63,0.17-1.62,0.35-2.97,0.52c-1.35,0.17-2.69,0.26-4.01,0.26c-1.32,0-2.49-0.1-3.49-0.3
			c-1.01-0.2-1.85-0.56-2.54-1.08c-0.69-0.52-1.21-1.23-1.55-2.15s-0.52-2.12-0.52-3.62v-45.5c0.63-0.11,1.64-0.27,3.02-0.47
			c1.38-0.2,2.7-0.3,3.96-0.3c1.32,0,2.48,0.1,3.49,0.3c1,0.2,1.85,0.56,2.54,1.08c0.69,0.52,1.21,1.23,1.55,2.15
			c0.35,0.92,0.52,2.13,0.52,3.62V106.73z"/>
		<path class="st1" d="M429.03,65.36c-4.43,0-7.81,1.35-10.17,4.05c-2.36,2.7-3.53,6.52-3.53,11.46c0,5,1.31,8.85,3.92,11.55
			c2.61,2.7,6.13,4.05,10.56,4.05c2.35,0,4.35-0.31,5.99-0.95c1.64-0.63,3.2-1.35,4.7-2.15c0.98,0.81,1.74,1.77,2.28,2.89
			c0.55,1.12,0.82,2.43,0.82,3.92c0,2.36-1.31,4.35-3.92,5.99c-2.61,1.64-6.59,2.46-11.94,2.46c-3.85,0-7.47-0.55-10.86-1.64
			c-3.39-1.09-6.35-2.77-8.88-5.04c-2.53-2.27-4.52-5.14-5.99-8.62c-1.47-3.48-2.2-7.63-2.2-12.45c0-4.48,0.7-8.43,2.11-11.85
			c1.41-3.42,3.33-6.3,5.77-8.66c2.44-2.36,5.3-4.14,8.57-5.34c3.27-1.21,6.78-1.81,10.51-1.81c5.29,0,9.38,0.86,12.28,2.58
			c2.9,1.72,4.35,3.94,4.35,6.64c0,1.49-0.37,2.79-1.12,3.88c-0.75,1.09-1.61,1.95-2.59,2.58c-1.49-0.98-3.09-1.81-4.78-2.5
			C433.24,65.71,431.28,65.36,429.03,65.36z"/>
		<path class="st1" d="M497.89,87.77c0,3.1-0.53,5.93-1.59,8.49c-1.06,2.56-2.6,4.74-4.61,6.55c-2.01,1.81-4.45,3.2-7.33,4.18
			c-2.87,0.98-6.12,1.47-9.74,1.47s-6.87-0.49-9.74-1.47c-2.87-0.98-5.31-2.37-7.33-4.18c-2.01-1.81-3.55-3.99-4.61-6.55
			c-1.06-2.56-1.59-5.39-1.59-8.49V54.85c0.63-0.11,1.64-0.27,3.02-0.47c1.38-0.2,2.7-0.3,3.96-0.3c1.32,0,2.48,0.1,3.49,0.3
			c1,0.2,1.85,0.56,2.54,1.08c0.69,0.52,1.21,1.23,1.55,2.15c0.35,0.92,0.52,2.13,0.52,3.62v26.28c0,2.76,0.76,4.91,2.28,6.46
			c1.52,1.55,3.49,2.33,5.9,2.33c2.47,0,4.45-0.78,5.95-2.33c1.49-1.55,2.24-3.7,2.24-6.46V54.85c0.63-0.11,1.64-0.27,3.02-0.47
			c1.38-0.2,2.7-0.3,3.96-0.3c1.32,0,2.48,0.1,3.49,0.3c1,0.2,1.85,0.56,2.54,1.08c0.69,0.52,1.21,1.23,1.55,2.15
			c0.34,0.92,0.52,2.13,0.52,3.62V87.77z"/>
		<path class="st1" d="M523.83,90.18v16.54c-0.63,0.17-1.62,0.35-2.97,0.52c-1.35,0.17-2.69,0.26-4.01,0.26
			c-1.32,0-2.49-0.1-3.49-0.3c-1.01-0.2-1.84-0.56-2.5-1.08c-0.66-0.52-1.16-1.23-1.51-2.15s-0.52-2.12-0.52-3.62V59.76
			c0-1.21,0.33-2.14,0.99-2.8c0.66-0.66,1.56-1.19,2.71-1.6c1.95-0.69,4.22-1.19,6.81-1.51c2.58-0.31,5.34-0.47,8.27-0.47
			c7.93,0,13.9,1.67,17.92,5c4.02,3.33,6.03,7.84,6.03,13.53c0,3.56-0.92,6.61-2.76,9.14c-1.84,2.53-4.02,4.48-6.55,5.86
			c2.07,2.82,4.11,5.46,6.12,7.93c2.01,2.47,3.59,4.71,4.74,6.72c-0.58,2.01-1.62,3.55-3.15,4.61c-1.52,1.06-3.23,1.59-5.13,1.59
			c-1.26,0-2.36-0.14-3.27-0.43c-0.92-0.29-1.72-0.69-2.41-1.21s-1.32-1.15-1.9-1.9c-0.57-0.75-1.12-1.55-1.64-2.41l-7.24-11.63
			H523.83z M529.26,78.72c2.18,0,3.91-0.56,5.17-1.68c1.26-1.12,1.9-2.77,1.9-4.96s-0.7-3.84-2.11-4.96
			c-1.41-1.12-3.63-1.68-6.68-1.68c-0.86,0-1.55,0.03-2.07,0.09c-0.52,0.06-1.09,0.14-1.72,0.26v12.93H529.26z"/>
		<path class="st1" d="M561.32,62.86c0-2.47,0.72-4.42,2.15-5.86c1.43-1.44,3.39-2.16,5.86-2.16h28.44c0.4,0.63,0.76,1.47,1.08,2.5
			c0.32,1.04,0.47,2.13,0.47,3.28c0,2.18-0.47,3.74-1.42,4.65c-0.95,0.92-2.2,1.38-3.75,1.38h-18.18v8.02h19.39
			c0.4,0.63,0.76,1.45,1.08,2.46c0.32,1,0.47,2.08,0.47,3.23c0,2.18-0.46,3.74-1.38,4.65c-0.92,0.92-2.15,1.38-3.71,1.38h-15.86
			v9.05h22.15c0.4,0.63,0.76,1.47,1.08,2.5c0.31,1.03,0.47,2.13,0.47,3.28c0,2.18-0.47,3.75-1.42,4.7c-0.95,0.95-2.2,1.42-3.75,1.42
			h-25.16c-2.47,0-4.43-0.72-5.86-2.16c-1.44-1.44-2.15-3.39-2.15-5.86V62.86z"/>
		<path class="st1" d="M236.51,184.11c-0.63,0.17-1.62,0.35-2.97,0.52c-1.35,0.17-2.69,0.26-4.01,0.26c-1.32,0-2.49-0.1-3.49-0.3
			c-1.01-0.2-1.85-0.56-2.54-1.08c-0.69-0.52-1.21-1.23-1.55-2.15c-0.34-0.92-0.52-2.12-0.52-3.62v-40.59c0-1.21,0.33-2.14,0.99-2.8
			c0.66-0.66,1.56-1.19,2.71-1.6c1.95-0.69,4.18-1.19,6.68-1.51c2.5-0.31,5.01-0.47,7.54-0.47c7.93,0,13.99,1.7,18.18,5.09
			c4.19,3.39,6.29,7.99,6.29,13.79c0,2.82-0.45,5.36-1.34,7.63c-0.89,2.27-2.21,4.22-3.96,5.86c-1.75,1.64-3.96,2.9-6.64,3.79
			c-2.67,0.89-5.76,1.34-9.26,1.34h-6.12V184.11z M241,156.45c2.41,0,4.27-0.56,5.56-1.68c1.29-1.12,1.94-2.83,1.94-5.13
			c0-2.18-0.68-3.86-2.02-5.04c-1.35-1.18-3.32-1.77-5.9-1.77c-0.92,0-1.68,0.02-2.28,0.04c-0.6,0.03-1.22,0.1-1.85,0.22v13.36H241z
			"/>
		<path class="st1" d="M286.5,167.57v16.54c-0.63,0.17-1.62,0.35-2.97,0.52c-1.35,0.17-2.69,0.26-4.01,0.26
			c-1.32,0-2.49-0.1-3.49-0.3c-1.01-0.2-1.84-0.56-2.5-1.08c-0.66-0.52-1.16-1.23-1.51-2.15c-0.34-0.92-0.52-2.12-0.52-3.62v-40.59
			c0-1.21,0.33-2.14,0.99-2.8c0.66-0.66,1.56-1.19,2.71-1.6c1.95-0.69,4.22-1.19,6.81-1.51c2.58-0.31,5.34-0.47,8.27-0.47
			c7.93,0,13.9,1.67,17.92,5c4.02,3.33,6.03,7.84,6.03,13.53c0,3.56-0.92,6.61-2.76,9.14c-1.84,2.53-4.02,4.48-6.55,5.86
			c2.07,2.82,4.11,5.46,6.12,7.93c2.01,2.47,3.59,4.71,4.74,6.72c-0.58,2.01-1.62,3.55-3.15,4.61c-1.52,1.06-3.23,1.59-5.13,1.59
			c-1.26,0-2.36-0.14-3.27-0.43c-0.92-0.29-1.72-0.69-2.41-1.21c-0.69-0.52-1.32-1.15-1.9-1.9c-0.57-0.75-1.12-1.55-1.64-2.41
			l-7.24-11.63H286.5z M291.93,156.1c2.18,0,3.91-0.56,5.17-1.68c1.26-1.12,1.9-2.77,1.9-4.96c0-2.18-0.7-3.84-2.11-4.96
			c-1.41-1.12-3.63-1.68-6.68-1.68c-0.86,0-1.55,0.03-2.07,0.09c-0.52,0.06-1.09,0.14-1.72,0.26v12.93H291.93z"/>
		<path class="st1" d="M335.1,133.79c0.98-0.57,2.46-1.12,4.44-1.64c1.98-0.52,3.98-0.77,5.99-0.77c2.87,0,5.41,0.42,7.63,1.25
			c2.21,0.83,3.63,2.14,4.27,3.92c1.03,2.99,2.15,6.46,3.36,10.43c1.21,3.97,2.41,8.06,3.62,12.28c1.21,4.22,2.38,8.39,3.53,12.49
			c1.15,4.11,2.15,7.74,3.02,10.9c-0.69,0.81-1.72,1.45-3.1,1.94c-1.38,0.49-3.02,0.73-4.91,0.73c-1.38,0-2.54-0.12-3.49-0.35
			c-0.95-0.23-1.72-0.57-2.33-1.03c-0.6-0.46-1.09-1.06-1.47-1.81c-0.37-0.75-0.7-1.61-0.99-2.58l-1.55-5.95h-15.6
			c-0.46,1.72-0.92,3.51-1.38,5.34c-0.46,1.84-0.92,3.62-1.38,5.34c-0.81,0.29-1.65,0.53-2.54,0.73c-0.89,0.2-1.97,0.3-3.23,0.3
			c-2.93,0-5.1-0.5-6.51-1.51c-1.41-1-2.11-2.4-2.11-4.18c0-0.8,0.11-1.61,0.35-2.41c0.23-0.8,0.49-1.75,0.78-2.84
			c0.4-1.55,0.96-3.47,1.68-5.77c0.72-2.3,1.51-4.78,2.37-7.46c0.86-2.67,1.78-5.41,2.76-8.23c0.98-2.82,1.9-5.47,2.76-7.97
			c0.86-2.5,1.65-4.72,2.37-6.68C334.14,136.31,334.7,134.82,335.1,133.79z M345.44,144.9c-0.81,2.41-1.71,5.1-2.72,8.06
			c-1.01,2.96-1.91,5.96-2.71,9h10.69c-0.81-3.1-1.62-6.13-2.46-9.09c-0.83-2.96-1.59-5.61-2.28-7.97H345.44z"/>
		<path class="st1" d="M393.19,165.07v19.05c-0.63,0.17-1.64,0.35-3.02,0.52c-1.38,0.17-2.73,0.26-4.05,0.26
			c-1.32,0-2.49-0.1-3.49-0.3c-1.01-0.2-1.85-0.56-2.54-1.08c-0.69-0.52-1.21-1.23-1.55-2.15c-0.34-0.92-0.52-2.12-0.52-3.62v-45.5
			c0.63-0.11,1.64-0.27,3.02-0.47c1.38-0.2,2.7-0.3,3.96-0.3c1.32,0,2.48,0.1,3.49,0.3c1,0.2,1.85,0.56,2.54,1.08
			c0.69,0.52,1.21,1.23,1.55,2.15c0.35,0.92,0.52,2.13,0.52,3.62v13.7l17.93-20.6c3.91,0,6.71,0.73,8.4,2.2
			c1.69,1.47,2.54,3.2,2.54,5.21c0,1.5-0.37,2.9-1.12,4.22c-0.75,1.32-1.95,2.82-3.62,4.48l-10.77,10.77c1.44,1.61,2.94,3.28,4.52,5
			c1.58,1.72,3.13,3.4,4.65,5.04c1.52,1.64,2.99,3.2,4.39,4.7c1.41,1.5,2.63,2.79,3.66,3.88c0,1.26-0.23,2.39-0.69,3.36
			c-0.46,0.98-1.08,1.81-1.85,2.5c-0.78,0.69-1.65,1.21-2.63,1.55c-0.98,0.35-2.01,0.52-3.1,0.52c-2.36,0-4.28-0.59-5.77-1.77
			c-1.49-1.18-2.93-2.57-4.31-4.18L393.19,165.07z"/>
		<path class="st1" d="M428.61,144.3c-0.4-0.63-0.78-1.49-1.12-2.58c-0.34-1.09-0.52-2.24-0.52-3.45c0-2.24,0.5-3.85,1.51-4.83
			c1-0.98,2.31-1.47,3.92-1.47h37.57c0.4,0.63,0.78,1.49,1.12,2.58c0.34,1.09,0.52,2.24,0.52,3.45c0,2.24-0.5,3.85-1.51,4.83
			c-1.01,0.98-2.31,1.47-3.92,1.47h-9.57v39.81c-0.63,0.17-1.62,0.35-2.97,0.52c-1.35,0.17-2.69,0.26-4.01,0.26
			c-1.32,0-2.49-0.1-3.49-0.3c-1.01-0.2-1.85-0.56-2.54-1.08c-0.69-0.52-1.21-1.23-1.55-2.15c-0.34-0.92-0.52-2.12-0.52-3.62V144.3
			H428.61z"/>
		<path class="st1" d="M494.01,184.11c-0.63,0.17-1.62,0.35-2.97,0.52c-1.35,0.17-2.69,0.26-4.01,0.26c-1.32,0-2.49-0.1-3.49-0.3
			c-1.01-0.2-1.85-0.56-2.54-1.08c-0.69-0.52-1.21-1.23-1.55-2.15c-0.34-0.92-0.52-2.12-0.52-3.62v-45.5
			c0.63-0.11,1.64-0.27,3.02-0.47c1.38-0.2,2.7-0.3,3.96-0.3c1.32,0,2.48,0.1,3.49,0.3c1,0.2,1.85,0.56,2.54,1.08
			c0.69,0.52,1.21,1.23,1.55,2.15c0.35,0.92,0.52,2.13,0.52,3.62V184.11z"/>
		<path class="st1" d="M514.7,132.23c0.63-0.11,1.64-0.27,3.02-0.47c1.38-0.2,2.7-0.3,3.96-0.3c1.32,0,2.48,0.1,3.49,0.3
			c1,0.2,1.85,0.56,2.54,1.08c0.69,0.52,1.21,1.23,1.55,2.15c0.34,0.92,0.52,2.13,0.52,3.62v31.89c0,5.11-1.47,8.95-4.4,11.51
			c-2.93,2.56-7.24,3.84-12.93,3.84c-2.99,0-5.4-0.46-7.24-1.38c-1.32-0.63-2.28-1.49-2.89-2.58c-0.6-1.09-0.91-2.33-0.91-3.71
			c0-1.15,0.16-2.15,0.47-3.02c0.32-0.86,0.7-1.55,1.16-2.07c1.09,0.23,2.02,0.39,2.8,0.47c0.78,0.09,1.62,0.13,2.54,0.13
			c2.24,0,3.85-0.56,4.83-1.68c0.98-1.12,1.47-2.77,1.47-4.96V132.23z"/>
		<path class="st1" d="M555.89,165.07v19.05c-0.63,0.17-1.64,0.35-3.02,0.52c-1.38,0.17-2.73,0.26-4.05,0.26
			c-1.32,0-2.49-0.1-3.49-0.3c-1.01-0.2-1.85-0.56-2.54-1.08c-0.69-0.52-1.21-1.23-1.55-2.15c-0.34-0.92-0.52-2.12-0.52-3.62v-45.5
			c0.63-0.11,1.64-0.27,3.02-0.47c1.38-0.2,2.7-0.3,3.96-0.3c1.32,0,2.48,0.1,3.49,0.3c1,0.2,1.85,0.56,2.54,1.08
			c0.69,0.52,1.21,1.23,1.55,2.15c0.35,0.92,0.52,2.13,0.52,3.62v13.7l17.93-20.6c3.91,0,6.71,0.73,8.4,2.2
			c1.69,1.47,2.54,3.2,2.54,5.21c0,1.5-0.37,2.9-1.12,4.22c-0.75,1.32-1.95,2.82-3.62,4.48l-10.77,10.77c1.44,1.61,2.94,3.28,4.52,5
			c1.58,1.72,3.13,3.4,4.65,5.04c1.52,1.64,2.99,3.2,4.39,4.7c1.41,1.5,2.63,2.79,3.66,3.88c0,1.26-0.23,2.39-0.69,3.36
			c-0.46,0.98-1.08,1.81-1.85,2.5c-0.78,0.69-1.65,1.21-2.63,1.55c-0.98,0.35-2.01,0.52-3.1,0.52c-2.36,0-4.28-0.59-5.77-1.77
			c-1.49-1.18-2.93-2.57-4.31-4.18L555.89,165.07z"/>
		<path class="st1" d="M625.78,163.69c-2.53-0.86-4.83-1.74-6.89-2.63c-2.07-0.89-3.85-1.97-5.34-3.23
			c-1.49-1.26-2.66-2.77-3.49-4.53c-0.83-1.75-1.25-3.89-1.25-6.42c0-4.88,1.88-8.79,5.64-11.72c3.76-2.93,9.03-4.4,15.81-4.4
			c2.47,0,4.77,0.17,6.89,0.52c2.12,0.35,3.95,0.88,5.47,1.6c1.52,0.72,2.71,1.64,3.58,2.76c0.86,1.12,1.29,2.43,1.29,3.92
			c0,1.5-0.34,2.77-1.03,3.84c-0.69,1.06-1.52,1.97-2.5,2.72c-1.26-0.8-2.96-1.51-5.08-2.11c-2.13-0.6-4.45-0.9-6.98-0.9
			c-2.58,0-4.48,0.36-5.69,1.08c-1.21,0.72-1.81,1.62-1.81,2.71c0,0.86,0.37,1.57,1.12,2.11c0.75,0.55,1.87,1.05,3.36,1.51
			l4.57,1.47c5.4,1.72,9.55,3.92,12.45,6.59c2.9,2.67,4.35,6.31,4.35,10.9c0,4.88-1.93,8.83-5.77,11.85
			c-3.85,3.02-9.51,4.52-16.98,4.52c-2.64,0-5.1-0.22-7.37-0.65c-2.27-0.43-4.25-1.06-5.95-1.89c-1.7-0.83-3.02-1.87-3.96-3.1
			c-0.95-1.23-1.42-2.66-1.42-4.26c0-1.67,0.49-3.09,1.47-4.27c0.98-1.18,2.04-2.08,3.19-2.72c1.61,1.26,3.58,2.36,5.9,3.28
			c2.33,0.92,4.87,1.38,7.63,1.38c2.81,0,4.8-0.43,5.95-1.29c1.15-0.86,1.72-1.87,1.72-3.02c0-1.15-0.46-2.02-1.38-2.63
			c-0.92-0.6-2.21-1.19-3.88-1.77L625.78,163.69z"/>
		<path class="st1" d="M655.85,158.26c0-4.48,0.7-8.45,2.11-11.89c1.41-3.45,3.33-6.33,5.77-8.66c2.44-2.33,5.31-4.09,8.62-5.3
			c3.3-1.21,6.88-1.81,10.73-1.81c3.85,0,7.42,0.6,10.73,1.81c3.3,1.21,6.19,2.97,8.66,5.3c2.47,2.33,4.41,5.21,5.82,8.66
			c1.41,3.45,2.11,7.41,2.11,11.89c0,4.48-0.69,8.46-2.07,11.94c-1.38,3.48-3.29,6.38-5.73,8.7c-2.44,2.33-5.33,4.09-8.66,5.3
			c-3.33,1.21-6.95,1.81-10.86,1.81c-3.91,0-7.53-0.62-10.86-1.85c-3.33-1.23-6.2-3.03-8.62-5.39c-2.41-2.35-4.31-5.26-5.69-8.7
			C656.54,166.62,655.85,162.68,655.85,158.26z M671.37,158.26c0,5.23,1.06,9.14,3.19,11.72c2.12,2.59,4.97,3.88,8.53,3.88
			c3.62,0,6.49-1.29,8.62-3.88c2.12-2.58,3.19-6.49,3.19-11.72c0-5.17-1.05-9.05-3.15-11.63c-2.1-2.59-4.96-3.88-8.57-3.88
			c-3.56,0-6.42,1.28-8.57,3.84C672.44,149.14,671.37,153.03,671.37,158.26z"/>
		<path class="st1" d="M727.04,184.72c-2.47,0-4.43-0.72-5.86-2.16c-1.44-1.44-2.15-3.39-2.15-5.86v-44.55
			c0.63-0.11,1.64-0.27,3.02-0.47c1.38-0.2,2.7-0.3,3.96-0.3c1.32,0,2.48,0.1,3.49,0.3c1,0.2,1.85,0.56,2.54,1.08
			c0.69,0.52,1.21,1.24,1.55,2.16c0.35,0.92,0.52,2.13,0.52,3.62v34.04h19.74c0.4,0.63,0.78,1.48,1.12,2.54
			c0.34,1.06,0.52,2.17,0.52,3.32c0,2.3-0.49,3.92-1.47,4.87c-0.98,0.95-2.27,1.42-3.88,1.42H727.04z"/>
	</g>
</g>
</svg>
