<?xml version="1.0" encoding="utf-8"?>
<!-- Generator: Adobe Illustrator 21.1.0, SVG Export Plug-In . SVG Version: 6.00 Build 0)  -->
<svg version="1.1" id="Laag_1" xmlns="http://www.w3.org/2000/svg" xmlns:xlink="http://www.w3.org/1999/xlink" x="0px" y="0px"
	 viewBox="0 0 4746.5 1082.3" style="enable-background:new 0 0 4746.5 1082.3;" xml:space="preserve">
<style type="text/css">
	.st0{opacity:0.1;fill:#5ABEAF;enable-background:new    ;}
</style>
<path id="Path_34" class="st0" d="M4690.2,1000.9C4417.6,845.3,3165.8,699,2510.6,709.7c-158.5,2.6-316.5,20.4-471.5,53.8
	C976.4,992.5,0,882.8,0,882.8V329.4c0,0,956.3,188.8,1881.6-73.7C2938.4-44.2,4750,360.9,4750,360.9S5021.8,1190.1,4690.2,1000.9z"
	/>
<g id="_x39_vKqSA.tif">
	
		<image style="overflow:visible;" width="1381" height="467" id="Layer_0" xlink:href="3FC4A6BA0CD88A44.png"  transform="matrix(1 0 0 1 1961.6576 1879.4784)">
	</image>
</g>
<path id="Path_33" class="st0" d="M220.7,771c1580-352.7,3075.7,130.5,3679.3,149.2c400.2,12.4,856.5-186.1,856.5-186.1V180.8
	c0,0-1360.5,304.8-2698-27.5C1315-31.4-23.8,62-23.8,62S-152,854.2,220.7,771z"/>
</svg>
